<svg width="900" height="450" xmlns="http://www.w3.org/2000/svg">
 <g>
  <title>Layer 1</title>
  <g fill="red" id="svg_13">
   <rect stroke="#000" id="svg_11" height="121" width="454" y="258" x="137" fill="#fff"/>
   <ellipse stroke="#000" ry="86" rx="84.5" id="svg_4" cy="246" cx="650.5" fill="#fff"/>
   <path d="m672.16566,189.43982c-2.9,2.9 -3.4,4.1 -3.4,7.9c0,3.7 0.5,5.1 3.1,7.6c2.5,2.6 3.9,3.1 7.6,3.1c3.8,0 5,-0.5 7.9,-3.4c2.8,-2.8 3.4,-4.2 3.4,-7.6c0,-3.4 -0.6,-4.8 -3.4,-7.6c-2.8,-2.8 -4.2,-3.4 -7.6,-3.4c-3.4,0 -4.8,0.6 -7.6,3.4z"/>
   <path d="m621.76566,194.03982c-5.2,1.6 -10.3,2.9 -11.2,2.9c-1,0.1 -1.8,0.6 -1.8,1.2c0,1.1 2.1,9 2.6,9.7c0.1,0.2 5.3,-1.1 11.5,-2.7c6.3,-1.7 12.5,-3.1 13.8,-3.1c2,0 14,7.7 14,9c0.1,0.3 -4.5,4.3 -10,9c-10.2,8.6 -12.9,12 -12.9,16.2c0,2.5 3.4,8.1 11.4,18.8l4.8,6.5l-20.1,0.3l-20.1,0.2l0,5.5l0,5.5l21.1,0c23.2,0 26,-0.6 29.2,-5.9c2.5,-4.3 2.1,-6.9 -2.8,-17.6c-2.5,-5.4 -4.4,-9.9 -4.3,-10c0.2,-0.1 4.3,-3.4 9.3,-7.5l9,-7.3l1.2,4.1c1.8,6.4 4.2,9.8 8.7,12.3c3.5,2 5.8,2.4 15.9,2.7l11.7,0.4l0,-5.6l0,-5.6l-10.5,0c-9.7,0 -10.8,-0.2 -12.9,-2.3c-1.5,-1.5 -2.5,-4.1 -3,-7.5c-0.9,-6.8 -2.8,-8.9 -19.3,-21.3c-13.6,-10.2 -13.8,-10.3 -19.7,-10.6c-4.4,-0.2 -8.7,0.6 -15.6,2.7z"/>
   <path d="m178.76565,210.93982c-18.6,4 -35.7,13 -49.2,25.9c-10,9.5 -15.8,17.3 -21.4,28.4c-19.1,38.1 -12.8,84.2 16,115.4c16,17.4 35.7,28 59.3,31.9c8.8,1.4 27.5,1.6 180.8,1.3l171,-0.3l8,-2.2c30.2,-8.1 54.6,-27.6 67.9,-54.1c3.8,-7.4 8.4,-21.8 9.2,-28.3l0.6,-5.4l-4.9,-1.8c-12,-4.3 -27.1,-16.6 -35.4,-28.9c-10.3,-15.1 -13.4,-28.3 -12.7,-54l0.5,-17.7l-4.5,-2.1c-8.8,-4.2 -14.3,-6 -24.1,-8c-9.7,-2 -13,-2 -181.3,-1.9c-161.2,0 -171.8,0.1 -179.8,1.8zm293.8,77.1c4.6,4.3 1.3,11 -5.3,11c-2.2,0 -4.3,-0.8 -5.5,-2c-6.2,-6.2 4.3,-15 10.8,-9zm-178.3,7.1c11.6,5.9 13,22.1 2.7,30.5l-2.6,2.1l4.7,6.6c7,9.8 7.1,9.7 -0.6,9.7l-6.6,0l-4.8,-7l-4.8,-7l-5.2,0l-5.3,0l0,7l0,7l-6,0l-6,0l0,-26.1l0,-26.1l14.8,0.3c13.5,0.4 15.2,0.6 19.7,3zm-52,11.4c5.3,3 8.7,9.1 8.9,15.8l0.1,5.2l-14.2,0.3c-7.9,0.1 -14.3,0.7 -14.3,1.2c0,0.4 1.2,1.8 2.6,2.9c3.3,2.6 10.2,2.8 14.6,0.5c3,-1.6 3.1,-1.5 6.1,1.4c3.7,3.7 3.2,5.3 -2.6,8.1c-8.3,4 -20.8,2.5 -26.7,-3.2c-6.3,-6.1 -8,-12.7 -5.6,-21c3.7,-12.7 19,-18.2 31.1,-11.2zm151.9,-0.7c5.7,3.3 7.1,8 7.1,23.7l0,14l-5.7,0.3l-5.8,0.3l0,-11.1c0,-13.3 -1.3,-17.5 -5.9,-18.5c-3.8,-0.8 -8.1,1.1 -9.8,4.5c-0.8,1.6 -1.3,6.7 -1.3,13.8l0,11.3l-5.7,-0.3l-5.8,-0.3l-0.3,-19.8l-0.2,-19.7l5.4,0c4.1,0 5.7,0.4 6.5,1.7c0.8,1.4 1.2,1.5 2.5,0.4c4,-3.3 13.6,-3.5 19,-0.3zm50.4,-0.2c6.4,3.8 8.4,10.9 8,27.6l-0.3,10.3l-6,0l-6,0l-0.5,-12.8c-0.5,-12.2 -0.6,-13 -3,-14.9c-2.9,-2.3 -7.4,-1.8 -10.5,1.2c-1.7,1.8 -2.1,3.8 -2.5,14.3l-0.5,12.2l-5.7,0.3l-5.8,0.3l0,-20.1l0,-20l5.5,0c4.4,0 5.5,0.3 5.5,1.6c0,1.2 0.5,1.4 1.8,0.9c6.8,-2.9 9.1,-3.5 13,-3c2.4,0.3 5.6,1.2 7,2.1zm71.6,0.2c5.9,3.5 7.1,7 7.4,23.4l0.4,14.8l-6,0l-6,0l-0.4,-13c-0.4,-14.9 -1.1,-16.5 -7.8,-16.5c-6.6,0 -7.4,1.6 -8,16.3l-0.5,12.7l-6,0l-6,0l-0.3,-19.8l-0.2,-19.7l6,0c4.7,0 6,0.3 6,1.5c0,1.7 1.6,2 2.5,0.5c2,-3.2 13.5,-3.4 18.9,-0.2zm43.2,-0.3c2.9,1.9 4.4,1.9 4.4,0c0,-1.2 1.3,-1.5 5.6,-1.5l5.5,0l-0.3,20.7c-0.3,23.6 -0.8,25.3 -8,30.1c-3.9,2.5 -4.9,2.7 -14.7,2.7c-8.3,0 -11.4,-0.4 -14.3,-1.9c-4.3,-2.1 -4.6,-3.7 -1.9,-8.3l2,-3.2l4,2c4.7,2.2 14.7,2.5 17.3,0.5c1.6,-1.2 3.8,-5.6 3.8,-7.7c0,-0.5 -1.7,0 -3.7,1.1c-10.3,5.5 -24.3,-0.8 -27.4,-12.3c-2.6,-9.6 3.6,-21 12.7,-23.5c4.8,-1.3 12,-0.7 15,1.3zm-404.80001,6.7c1.6,4.6 3.5,10 4.2,12.1c0.6,2.1 1.5,3.6 1.8,3.2c0.4,-0.3 2.5,-5.6 4.7,-11.8l4,-11.2l5.4,0l5.4,0l3.9,11c2.2,6 4.3,11.3 4.7,11.7c0.4,0.5 2.6,-4.6 5,-11.2l4.3,-12l4.9,0c2.6,0 5,0.3 5.2,0.7c0.3,0.5 -1.4,6 -3.7,12.3c-2.4,6.3 -5.5,15 -7,19.2l-2.8,7.8l-5.8,0l-5.8,0l-3.7,-10.5c-2.1,-5.8 -4.1,-10.8 -4.5,-11c-0.4,-0.2 -2.5,4.4 -4.7,10.3l-4,10.7l-5.6,0.3c-4.7,0.2 -5.7,0 -6.6,-1.7c-1.7,-3.1 -13.1,-35.1 -13.1,-36.7c0,-1 1.4,-1.4 5.4,-1.4l5.4,0l3,8.2zm168.2,-7.5c0.1,0.5 0.3,5.7 0.5,11.8c0.3,6 0.7,12 1,13.2c1,4.5 11.1,4.9 13.1,0.5c0.5,-0.9 1.1,-7.1 1.4,-13.7l0.5,-12l6,0l6,0l0,19.5l0,19.5l-5.7,0.3c-5.2,0.3 -5.8,0.1 -5.8,-1.7c0,-2 0,-2 -3.5,0c-4.6,2.7 -14.7,2.4 -18.7,-0.6c-5.4,-4 -6.3,-6.9 -6.6,-21.3c-0.2,-7.3 -0.1,-13.9 0.2,-14.7c0.4,-1.1 2.1,-1.5 6.1,-1.5c3,0 5.5,0.3 5.5,0.7zm150.5,19.3l0,19.5l-6,0l-6,0l-0.3,-18.5c-0.1,-10.1 0,-19 0.3,-19.8c0.3,-0.9 2.1,-1.2 6.2,-1l5.8,0.3l0,19.5z"/>
   <path d="m271.76565,311.03982l0,8l6.5,0c3.5,0 7.6,-0.5 9,-1.2c5,-2.3 4.9,-11.4 -0.1,-13.7c-1.4,-0.6 -5.4,-1.1 -8.9,-1.1l-6.5,0l0,8z"/>
   <path d="m225.36565,315.13982c-4.8,3.8 -3.5,4.9 5.9,4.9c6.7,0 8.5,-0.3 8.5,-1.4c0,-2.3 -5,-5.6 -8.5,-5.6c-1.8,0 -4.4,0.9 -5.9,2.1z"/>
   <path d="m545.66566,316.93982c-3.6,3.6 -3.7,7 -0.4,10.9c3.2,3.8 7.2,4.8 11.8,2.8c5.3,-2.2 7,-6.6 4.6,-11.9c-2.5,-5.4 -11.4,-6.4 -16,-1.8z"/>
   <path d="m586.76566,217.53982l0,2.5l19.1,0c17.7,0 19.4,-0.2 22.5,-2.1c1.9,-1.1 3.4,-2.3 3.4,-2.5c0,-0.2 -10.1,-0.4 -22.5,-0.4l-22.5,0l0,2.5z"/>
   <path d="m586.76566,229.53982l0,2.5l15.9,0l15.9,0l0.4,-2.5l0.5,-2.5l-16.3,0l-16.4,0l0,2.5z"/>
   <path d="m587.36566,238.73982c-0.3,0.4 -0.6,1.7 -0.6,3l0,2.3l16,0c15,0 16,-0.1 16,-1.9c0,-1 -0.6,-2.3 -1.2,-2.9c-1.4,-1.1 -29.1,-1.5 -30.2,-0.5z"/>
   <path d="m620.06566,287.13982c-4.3,4.4 -7.9,8.4 -8,8.7c-0.2,0.4 1.6,1.9 4,3.4l4.2,2.7l10.8,-10.7c5.9,-5.8 10.7,-11 10.7,-11.4c0,-0.5 -3.1,-0.8 -7,-0.8l-6.9,0l-7.8,8.1z"/>
  </g>
 </g>

</svg>